<svg xmlns="http://www.w3.org/2000/svg" xmlns:xlink="http://www.w3.org/1999/xlink" viewBox="0 0 1040 235.8" xmlns:v="https://vecta.io/nano"><g fill="#f15a24"><path d="M108.9 74.6h0c.1 0-.1 0 0 0z" opacity=".47"/><path d="M271.2 194.2s-30.1-30.6-101.2 3.5c-81 38.8-150.4 1.9-156.5-43.3-4.9-36.7 19.4-59 46.9-70.3v30.7c4.8 1.4 10.2 5.8 15.5 11.4 14.2 15 27.9 38.7 27.9 38.7h8.1s23-60.1 88.1-56c65.1 3.9 71.8 74.9 71.2 85.3z"/><path d="M157.4 84s-42.8 31.3-47.7 61.8l-1.7.4c-2.4-14.2-12.3-26.2-23-38.4C72.7 93.9 60.4 84 60.4 84l.1-13.4.2-51.4 34.2 42.4c4.4-.6 8.6-.9 12.3-1h3.2c4.9.1 9 .5 12 1.3L157 19.2l.4 64.8zm224.3 81.7v-57.1h-15.1V94.5h15.1v-6.4c0-4.2.6-7.8 1.7-11 1.1-3.1 2.6-5.8 4.6-8 1.9-2.2 4.1-4 6.6-5.3a27.52 27.52 0 0 1 8-3c2.8-.6 5.7-.9 8.5-.9 2.7 0 4.7.2 6.1.5s2.4.6 2.8.8v14.2c-.5-.2-1.5-.4-2.8-.6s-2.7-.4-4.3-.4c-2.7 0-5 .4-6.8 1.2s-3.2 1.9-4.2 3.2c-1 1.4-1.7 3-2.1 4.8s-.6 3.8-.6 5.9v5H419v14.1h-19.7v57.1h-17.6z"/><use xlink:href="#B"/><path d="M528.6 126.9l-.1 8-29-40.4h19.3l21.8 31.7-10.6-.1 21.4-31.6h18.9l-27.8 38.1-.5-7.4 28.7 40.4h-19.3L529.2 134l11.9-1.1-23.9 32.7h-18.9l30.3-38.7z"/></g><path d="M603.9 167c-5.1 0-9.6-.8-13.5-2.5-3.8-1.7-6.8-4.1-8.9-7.3s-3.2-7-3.2-11.5c0-4.6 1.1-8.5 3.4-11.6s5.5-5.5 9.7-7.3c4.2-1.7 9-2.9 14.5-3.5 8.3-.9 14.2-1.8 17.8-2.6 3.5-.9 5.3-2.3 5.3-4.3v-.2c0-4.1-1.6-7.2-4.8-9.2s-7.8-3-13.8-3c-6.3 0-11.2 1.2-14.6 3.5-3.5 2.3-5.2 6-5.2 11.2h-10.7c0-5.3 1.3-9.8 3.9-13.6 2.6-3.7 6.2-6.6 10.8-8.5 4.6-2 9.9-2.9 15.9-2.9 5.5 0 10.5.9 14.9 2.6 4.4 1.8 8 4.4 10.6 7.8 2.6 3.5 3.9 7.7 3.9 12.8v35.5c0 1.6.1 3.1.2 4.6s.3 2.8.6 3.9c.4 1.3.8 2.4 1.3 3.2s.8 1.4 1.1 1.7h-10.9c-.2-.2-.5-.7-1-1.6-.4-.8-.8-1.8-1.2-2.9-.3-.9-.5-2-.7-3.4s-.3-2.8-.3-4.3l1.8 1.3c-1.3 2.4-3.2 4.5-5.8 6.4-2.5 1.8-5.6 3.3-9.1 4.3-3.4.9-7.5 1.4-12 1.4zm1.7-10.2c4.4 0 8.3-.7 11.8-2.1s6.3-3.5 8.4-6.3 3.1-6.2 3.1-10.3V124l2.4 4.3c-2.7 1.1-6.1 2-10.2 2.7s-8.3 1.3-12.7 1.7c-6.4.6-11.2 1.8-14.5 3.6s-4.9 4.7-4.9 8.8c0 3.9 1.3 6.8 4 8.8 2.9 1.9 7 2.9 12.6 2.9zm47.1 8.9V94.5h10.8v71.2h-10.8zm48.4 0v-43c0-3.7-.6-6.9-1.8-9.7a13.48 13.48 0 0 0-5.6-6.4c-2.5-1.5-5.9-2.3-10-2.3-3.6 0-6.9 1-10 2.9s-5.5 4.6-7.4 7.8c-1.8 3.3-2.8 7-2.8 11l-6.2-2.5c0-5.6 1.3-10.7 3.9-15.2a30.24 30.24 0 0 1 10.4-10.9c4.3-2.7 9.1-4.1 14.2-4.1 5.2 0 9.8 1.1 13.7 3.1 3.9 2.1 6.9 5.1 9.1 9 2.1 3.9 3.2 8.6 3.2 14.1v45.9h-10.7zm52.5 1.3c-5.6 0-10.7-1.4-15.3-4.3-4.6-2.8-8.3-7-11.1-12.5s-4.1-12.2-4.1-20.2c0-7.8 1.4-14.4 4.2-19.9 2.8-5.4 6.5-9.6 11.1-12.4s9.7-4.3 15.1-4.3c5.2 0 10.1 1.3 14.7 3.9s8.2 6.2 11 10.9c2.8 4.6 4.2 10 4.2 16.1v.8l-7.8.3v-.8c0-3.9-1-7.4-2.9-10.5s-4.5-5.6-7.6-7.5-6.5-2.8-10.1-2.8c-6 0-11 2.1-15 6.4-3.9 4.3-5.9 10.8-5.9 19.7 0 8.8 2 15.4 6 19.7s8.9 6.5 14.9 6.5a19.28 19.28 0 0 0 10.3-2.9c3.1-1.9 5.6-4.5 7.5-7.7s2.8-6.9 2.8-10.9l7.8.2c0 6.1-1.3 11.5-4 16.4-2.7 4.8-6.3 8.7-10.8 11.5-4.4 2.9-9.5 4.3-15 4.3zm22.1-1.3V61h10.9v104.7h-10.9z"/><g fill="#f15a24"><path d="M799.6 165.7V61h17.7v104.7h-17.7zm40.1 1.5c-5.5 0-10.7-1.4-15.4-4.3s-8.5-6.8-11.4-11.8-4.3-10.6-4.3-16.9v-.9l8.7-.2v.6c0 3.5.9 6.6 2.6 9.3s4 4.8 6.8 6.4c2.8 1.5 5.8 2.3 8.9 2.3 5.1 0 9.5-1.8 13.1-5.3s5.4-9 5.4-16.4c0-7.5-1.8-12.9-5.4-16.4s-8-5.2-13.2-5.2c-3.1 0-6.1.7-8.9 2.2s-5.1 3.6-6.8 6.2c-1.8 2.6-2.6 5.7-2.6 9.2l-8.7-.4c0-6.3 1.4-11.9 4.3-16.8s6.7-8.7 11.4-11.4a30.33 30.33 0 0 1 15.4-4.1c5.8 0 11.1 1.4 16.1 4.3 5 2.8 9 7 12.1 12.4s4.6 12.1 4.6 19.9c0 8.1-1.5 14.9-4.5 20.4s-7 9.7-11.9 12.6c-4.9 2.8-10.4 4.3-16.3 4.3z"/><use xlink:href="#B" x="459.5"/><path d="M988 126.9l-.1 8-29-40.4h19.3l21.8 31.7-10.6-.1 21.4-31.6h18.9l-27.8 38.1-.5-7.4 28.7 40.4h-19.3L988.6 134l11.9-1.1-23.9 32.7h-18.9l30.3-38.7z"/></g><defs ><path id="B" d="M459.8 167.1c-7.5 0-14.1-1.6-19.8-4.7a33.77 33.77 0 0 1-13.4-13.1c-3.2-5.6-4.9-12-4.9-19.2s1.6-13.6 4.9-19.1c3.2-5.5 7.7-9.8 13.4-13 5.7-3.1 12.3-4.7 19.8-4.7s14.1 1.6 19.8 4.7 10.2 7.4 13.4 13c3.2 5.5 4.9 11.9 4.9 19.1s-1.6 13.6-4.9 19.2c-3.2 5.6-7.7 9.9-13.4 13.1-5.7 3.1-12.3 4.7-19.8 4.7zm0-14.4c4.1 0 7.6-.9 10.7-2.8 3-1.9 5.4-4.5 7.1-7.9s2.5-7.3 2.5-11.9-.8-8.5-2.5-11.8-4.1-5.9-7.1-7.7-6.6-2.7-10.7-2.7c-4 0-7.6.9-10.6 2.7-3.1 1.8-5.4 4.4-7.1 7.7s-2.5 7.3-2.5 11.8c0 4.6.8 8.5 2.5 11.9s4.1 6 7.1 7.9 6.6 2.8 10.6 2.8z"/></defs></svg>